<?xml version="1.0" encoding="iso-8859-1"?>
<!-- Generator: Adobe Illustrator 19.0.0, SVG Export Plug-In . SVG Version: 6.00 Build 0)  -->
<svg version="1.1" id="Layer_1" xmlns="http://www.w3.org/2000/svg" xmlns:xlink="http://www.w3.org/1999/xlink" x="0px" y="0px"
	 viewBox="0 0 512.003 512.003" style="enable-background:new 0 0 512.003 512.003;" xml:space="preserve">
<path style="fill:#fed136;" d="M365.06,134.089l22.02-65.213l8.935,45.667c1.135,5.799,6.705,9.622,12.524,8.594l0,0
	c5.73-1.011,11.236,2.681,12.477,8.365l12.418,56.914l48.771,70.94c11.889,17.292,17.835,37.981,16.943,58.948l0,0
	c-0.699,16.414-5.564,32.38-14.137,46.395l-31.367,51.273c-11.752,19.21-32.856,30.695-55.369,30.133l-28.876-0.722
	c-19.615-0.491-37.052-12.617-44.34-30.835l-11.534-28.836c-2.652-6.628-11.32-8.204-16.134-2.931l-6.832,7.483
	c-4.141,4.535-11.5,3.72-14.546-1.613l-10.168-17.794c-10.353-18.118-32.082-26.375-51.854-19.704l-57.769,19.488
	c-6.29,2.122-12.462,4.575-18.491,7.352l-50.523,23.256c-11.013,5.069-23.642,5.316-34.844,0.681l0,0
	c-9.377-3.88-13.112-15.187-7.89-23.888l1.492-2.485c4.333-7.222,4.964-16.076,1.699-23.838l-33.896-80.596
	c-8.806-20.938,0.607-45.085,21.259-54.539l64.183-29.386l57.894-72.114c6.764-8.426,18.536-10.902,28.123-5.918l0,0
	c8.488,4.413,18.793,3.311,26.156-2.798l37.077-30.766c5.012-4.158,11.867-5.314,17.964-3.027l20.637,7.739
	c9.879,3.704,14.529,15.022,10.107,24.602l0,0c-3.721,8.062-1.063,17.632,6.281,22.621l26.851,18.238
	C342.898,154.332,360.187,148.521,365.06,134.089z"/>
<path style="fill:#fed136;" d="M64.531,378.041l1.492-2.485c4.333-7.222,4.964-16.076,1.699-23.838l-33.896-80.596
	c-8.806-20.938-1.286-36.144,19.367-45.598l64.183-29.386l59.787-81.055c2.122-2.642,4.736-4.698,7.62-6.124
	c-9.504-4.687-21.019-2.174-27.68,6.124l-57.894,72.114l-64.183,29.386c-20.653,9.456-30.065,33.602-21.259,54.539l33.896,80.596
	c3.265,7.762,2.634,16.617-1.699,23.838l-1.492,2.485c-5.221,8.702-1.486,20.009,7.89,23.889c8.51,3.521,17.843,4.219,26.667,2.13
	c-2.24-0.531-4.45-1.238-6.606-2.13C63.045,398.05,59.31,386.743,64.531,378.041z"/>
<path style="fill:#F95428;" d="M486.445,212.464L486.445,212.464c-23.848-23.848-62.511-23.848-86.358,0l0,0
	c-23.848,23.848-23.848,62.511,0,86.358l43.179,43.179l43.179-43.179C510.292,274.974,510.292,236.311,486.445,212.464z"/>
<circle style="fill:#FFFFFF;" cx="443.262" cy="255.648" r="25.657"/>
<path style="fill:#222222;" d="M128.542,145.74c3.303,2.652,8.131,2.124,10.783-1.18l21.013-26.175c4.459-5.554,12.282-7.202,18.603-3.914
	c11.254,5.851,24.832,4.399,34.592-3.701l37.077-30.766c2.886-2.396,6.86-3.065,10.374-1.748l20.637,7.739
	c2.759,1.035,4.894,3.105,6.015,5.831c1.119,2.726,1.056,5.7-0.179,8.376c-5.315,11.517-1.556,25.051,8.936,32.18l26.851,18.238
	c8.007,5.438,17.86,6.789,27.033,3.705c9.173-3.083,16.21-10.111,19.307-19.28l12.775-37.833l3.386,17.304
	c1.922,9.833,11.51,16.422,21.384,14.676c1.679-0.294,3.284,0.779,3.65,2.447l8.03,36.804c0.782,3.589,3.958,6.037,7.487,6.037
	c0.542,0,1.092-0.058,1.643-0.178c4.138-0.903,6.762-4.99,5.859-9.129l-8.03-36.806c-2.128-9.742-11.478-16.017-21.305-14.283
	c-1.673,0.301-3.332-0.827-3.663-2.513l-8.935-45.667c-0.668-3.414-3.55-5.951-7.02-6.181c-3.459-0.236-6.661,1.905-7.774,5.199
	l-22.02,65.213c-1.549,4.588-5.071,8.105-9.661,9.647s-9.519,0.867-13.526-1.854l-26.851-18.238
	c-4.259-2.893-5.785-8.388-3.627-13.062c2.998-6.495,3.159-14.015,0.44-20.633c-2.719-6.617-8.119-11.852-14.818-14.365
	l-20.637-7.739c-8.656-3.246-18.444-1.594-25.555,4.306l-37.077,30.766c-4.999,4.149-11.954,4.892-17.72,1.895
	c-12.787-6.648-28.618-3.317-37.642,7.922l-21.013,26.175C124.712,138.261,125.239,143.089,128.542,145.74z"/>
<path style="fill:#222222;" d="M418.652,432.596c-7.296,3.08-15.022,4.541-22.931,4.344l-28.877-0.722c-16.57-0.414-31.254-10.625-37.409-26.015
	l-11.534-28.837c-2.233-5.579-7.096-9.551-13.007-10.625c-5.924-1.076-11.863,0.935-15.913,5.372l-6.834,7.484
	c-0.391,0.428-0.846,0.479-1.173,0.443c-0.319-0.035-0.76-0.184-1.048-0.688l-10.168-17.794
	c-12.139-21.246-37.779-30.989-60.966-23.168l-57.769,19.488c-6.522,2.201-12.997,4.774-19.247,7.651l-50.523,23.256
	c-9.044,4.162-19.506,4.367-28.705,0.561c-2.44-1.009-4.24-2.947-5.068-5.454c-0.828-2.508-0.536-5.137,0.822-7.4l1.49-2.484
	c5.569-9.282,6.389-20.781,2.193-30.759L18.091,266.65c-7.244-17.226,0.391-36.813,17.382-44.592l64.183-29.386
	c1.086-0.497,2.04-1.241,2.788-2.172l17.384-21.654c2.652-3.303,2.124-8.132-1.18-10.783c-3.303-2.652-8.132-2.124-10.783,1.18
	l-16.247,20.238l-62.532,28.629C4.515,219.36-6.527,247.687,3.949,272.598l33.896,80.596c2.308,5.488,1.857,11.813-1.206,16.92
	l-1.49,2.484c-3.638,6.063-4.452,13.391-2.235,20.104c2.217,6.713,7.236,12.114,13.769,14.818
	c13.134,5.433,28.073,5.143,40.984-0.801l50.523-23.256c5.759-2.652,11.726-5.023,17.736-7.051l57.769-19.488
	c16.254-5.485,34.232,1.348,42.742,16.242l10.168,17.794c2.643,4.626,7.384,7.738,12.677,8.324
	c5.295,0.586,10.602-1.411,14.191-5.346l6.832-7.483c0.621-0.679,1.345-0.71,1.843-0.622c0.499,0.091,1.165,0.378,1.506,1.23
	l11.534,28.836c8.435,21.091,28.56,35.086,51.27,35.654l28.877,0.722c0.604,0.015,1.205,0.022,1.807,0.022
	c9.479,0,18.713-1.872,27.473-5.571c3.904-1.647,5.73-6.147,4.083-10.05C427.053,432.775,422.553,430.946,418.652,432.596z"/>
<path style="fill:#222222;" d="M496.398,321.449c-4.171-0.708-8.139,2.092-8.854,6.268c-1.914,11.197-5.891,21.788-11.822,31.481l-31.367,51.274
	c-1.519,2.484-3.246,4.863-5.133,7.073c-2.752,3.22-2.371,8.063,0.851,10.814c1.446,1.233,3.217,1.837,4.979,1.837
	c2.167,0,4.319-0.912,5.835-2.689c2.41-2.822,4.615-5.859,6.555-9.03l31.367-51.274c6.951-11.36,11.613-23.776,13.856-36.901
	C503.379,326.127,500.573,322.163,496.398,321.449z"/>
<path style="fill:#222222;" d="M443.265,288.97c18.377,0,33.327-14.95,33.327-33.328c0-7.172-2.244-14.007-6.49-19.765
	c-2.514-3.409-7.316-4.135-10.727-1.62c-3.409,2.514-4.135,7.316-1.62,10.725c2.287,3.101,3.497,6.786,3.497,10.659
	c0,9.918-8.069,17.987-17.986,17.987s-17.986-8.069-17.986-17.987c0-9.918,8.069-17.986,17.986-17.986c4.236,0,7.67-3.434,7.67-7.67
	c0-4.236-3.434-7.67-7.67-7.67c-18.377,0-33.327,14.95-33.327,33.327C409.939,274.02,424.889,288.97,443.265,288.97z"/>
<path style="fill:#222222;" d="M374.53,255.643c0,18.36,7.151,35.621,20.134,48.604l43.178,43.179c1.499,1.497,3.462,2.247,5.425,2.247
	c1.962,0,3.926-0.749,5.425-2.247l43.178-43.179c12.983-12.982,20.134-30.243,20.134-48.604s-7.151-35.621-20.134-48.603
	c-26.798-26.799-70.406-26.799-97.204,0C381.681,220.022,374.53,237.283,374.53,255.643z M443.265,202.274
	c13.673,0,27.346,5.204,37.756,15.613c10.085,10.085,15.639,23.494,15.639,37.756c0,14.262-5.554,27.671-15.639,37.756
	l-37.756,37.756l-37.756-37.756c-10.085-10.085-15.639-23.494-15.639-37.756s5.554-27.671,15.639-37.756
	C415.92,207.478,429.592,202.274,443.265,202.274z"/>
<g>
</g>
<g>
</g>
<g>
</g>
<g>
</g>
<g>
</g>
<g>
</g>
<g>
</g>
<g>
</g>
<g>
</g>
<g>
</g>
<g>
</g>
<g>
</g>
<g>
</g>
<g>
</g>
<g>
</g>
</svg>
