<?xml version="1.0" encoding="iso-8859-1"?>
<!-- Generator: Adobe Illustrator 19.0.0, SVG Export Plug-In . SVG Version: 6.00 Build 0)  -->
<svg version="1.1" id="Layer_1" xmlns="http://www.w3.org/2000/svg" xmlns:xlink="http://www.w3.org/1999/xlink" x="0px" y="0px"
	 viewBox="0 0 512 512" style="enable-background:new 0 0 512 512;" xml:space="preserve">
<rect x="157.13" y="369.63" style="fill:#B3B3B3;" width="148.7" height="44.34"/>
<rect x="275.45" y="369.63" style="fill:#999999;" width="30.385" height="44.34"/>
<path style="fill:#CCCCCC;" d="M127.874,279.535v-26.462c0-20.265-16.385-36.692-36.598-36.692H59.26
	c-6.957,0-12.596,5.654-12.596,12.628v50.525h81.21V279.535z"/>
<path style="fill:#B3B3B3;" d="M91.276,216.382H60.65c20.212,0,36.598,16.428,36.598,36.692v26.462h30.626v-26.462
	C127.874,232.809,111.488,216.382,91.276,216.382z"/>
<path style="fill:#686868;" d="M405.437,504.713H57.532c-26.498,0-47.978-21.48-47.978-47.978v-0.124
	c0-26.497,21.48-47.978,47.978-47.978h347.905c26.497,0,47.978,21.48,47.978,47.978v0.124
	C453.415,483.233,431.934,504.713,405.437,504.713z"/>
<path style="fill:#4F4F4F;" d="M405.499,408.633h-30.626c26.463,0,47.916,21.508,47.916,48.04l0,0
	c0,26.532-21.453,48.04-47.916,48.04h30.626c26.463,0,47.916-21.508,47.916-48.04l0,0
	C453.415,430.141,431.962,408.633,405.499,408.633z"/>
<g>
	<ellipse style="fill:#B3B3B3;" cx="64.919" cy="456.67" rx="22.03" ry="22.09"/>
	<ellipse style="fill:#B3B3B3;" cx="398.05" cy="456.67" rx="22.03" ry="22.09"/>
	<path style="fill:#B3B3B3;" d="M357.026,442.922H105.944c1.346,4.344,2.072,8.963,2.072,13.751s-0.726,9.406-2.072,13.751h251.082
		c-1.346-4.344-2.072-8.963-2.072-13.751S355.679,447.266,357.026,442.922z"/>
</g>
<path style="fill:#FFCC5A;" d="M306.716,204.953H193.178c-5.733,0-10.381,4.66-10.381,10.408v45.016
	c0,5.748-4.648,10.408-10.381,10.408H19.936c-5.733,0-10.381,4.66-10.381,10.408v83.863c0,5.748,4.648,10.408,10.381,10.408h310.205
	c8.037,0,14.551-6.532,14.551-14.589v-93.232c0-2.218-0.505-4.408-1.475-6.401l-23.425-48.101
	C317.352,208.131,312.277,204.953,306.716,204.953z"/>
<path style="fill:#FFB000;" d="M343.217,261.242l-23.425-48.101c-2.44-5.01-7.515-8.188-13.076-8.188h-30.33
	c5.561,0,10.636,3.178,13.076,8.188l23.425,48.101c0.971,1.993,1.475,4.183,1.475,6.401v63.685c0,7.418-5.998,13.431-13.396,13.431
	H19.936c-5.733,0-10.381-4.66-10.381-10.408v30.705c0,5.748,4.648,10.408,10.381,10.408h279.876h30.33
	c8.036,0,14.551-6.532,14.551-14.589V330.17v-62.527C344.693,265.425,344.188,263.236,343.217,261.242z"/>
<path style="fill:#AEFFFF;" d="M294.908,231.008h-80.791c-1.251,0-2.266,1.017-2.266,2.271v37.29c0,0.607,0.243,1.189,0.674,1.616
	l27.899,27.627c0.424,0.42,0.996,0.655,1.592,0.655h71.173c1.251,0,2.266-1.017,2.266-2.271v-27.378c0-0.345-0.079-0.686-0.23-0.997
	l-18.281-37.539C296.564,231.502,295.774,231.008,294.908,231.008z"/>
<path style="fill:#84F1F7;" d="M315.226,269.821l-18.281-37.539c-0.38-0.78-1.17-1.275-2.036-1.275h-30.626
	c0.866,0,1.656,0.495,2.036,1.275l18.281,37.539c0.151,0.31,0.23,0.651,0.23,0.997v27.378c0,1.254-1.014,2.271-2.266,2.271h30.626
	c1.251,0,2.266-1.017,2.266-2.271v-27.378C315.455,270.472,315.377,270.131,315.226,269.821z"/>
<path style="fill:#FFA227;" d="M293.609,47.743c-3.182-2.671-5.439-6.011-6.767-9.63L61.967,216.178l0.162,0.204h29.147
	c14.209,0,26.518,8.124,32.581,19.987L314.363,64.587L293.609,47.743z"/>
<path style="fill:#CCCCCC;" d="M475.474,212.149h-33.305c-2.359,0-4.397-1.656-4.884-3.971l-8.313-39.463
	c-0.656-3.112,1.712-6.039,4.884-6.039h49.932c3.172,0,5.54,2.928,4.884,6.039l-8.313,39.463
	C479.87,210.493,477.833,212.149,475.474,212.149z"/>
<path style="fill:#B3B3B3;" d="M483.787,162.676h-24.195l-9.816,45.502c-0.488,2.315-2.525,3.971-4.884,3.971h30.581
	c2.359,0,4.397-1.656,4.884-3.971l8.313-39.463C489.327,165.604,486.959,162.676,483.787,162.676z"/>
<ellipse style="fill:#AF794E;" cx="458.82" cy="333.95" rx="43.624" ry="43.737"/>
<path style="fill:#9E653E;" d="M458.821,290.209c-5.389,0-10.548,0.986-15.313,2.778c16.538,6.218,28.311,22.207,28.311,40.959
	s-11.774,34.741-28.311,40.959c4.765,1.792,9.923,2.778,15.313,2.778c24.093,0,43.624-19.582,43.624-43.737
	C502.445,309.79,482.914,290.209,458.821,290.209z"/>
<path style="fill:#FFCC5A;" d="M406.551,91.356l-21.978-20.715l-60.204-56.745c-8.926-8.867-23.317-8.848-32.219,0.044
	c-9.518,9.507-8.843,25.156,1.458,33.803l141.608,114.934h47.001L406.551,91.356z"/>
<g>
	<path style="fill:#051C1B;" d="M35.6,456.673c0,16.198,13.153,29.376,29.319,29.376s29.319-13.178,29.319-29.376
		s-13.153-29.376-29.319-29.376S35.6,440.475,35.6,456.673z M64.919,441.871c8.131,0,14.746,6.641,14.746,14.803
		c0,8.162-6.615,14.803-14.746,14.803s-14.746-6.641-14.746-14.803C50.174,448.512,56.788,441.871,64.919,441.871z"/>
	<path style="fill:#051C1B;" d="M398.051,486.05c16.167,0,29.32-13.178,29.32-29.376s-13.153-29.376-29.32-29.376
		c-16.167,0-29.319,13.178-29.319,29.376C368.731,472.872,381.884,486.05,398.051,486.05z M398.051,441.871
		c8.13,0,14.746,6.641,14.746,14.803c0,8.162-6.615,14.803-14.746,14.803c-8.13,0-14.746-6.641-14.746-14.803
		S389.92,441.871,398.051,441.871z"/>
	<path style="fill:#051C1B;" d="M100.078,474.747c1.373,1.863,3.55,2.963,5.866,2.963h251.082c2.315,0,4.493-1.1,5.866-2.964
		c1.374-1.863,1.78-4.269,1.095-6.479c-1.158-3.736-1.745-7.637-1.745-11.594c0-3.958,0.587-7.858,1.745-11.595
		c0.685-2.211,0.279-4.616-1.095-6.479c-1.373-1.864-3.55-2.964-5.866-2.964H105.944c-2.315,0-4.492,1.1-5.866,2.963
		c-1.373,1.863-1.78,4.269-1.095,6.48c1.158,3.738,1.745,7.639,1.745,11.595c0,3.955-0.587,7.855-1.745,11.594
		C98.298,470.479,98.705,472.884,100.078,474.747z M114.916,450.209h233.137c-0.257,2.138-0.386,4.295-0.386,6.464
		s0.129,4.327,0.386,6.463H114.916c0.257-2.138,0.386-4.295,0.386-6.463C115.303,454.504,115.173,452.347,114.916,450.209z"/>
	<path style="fill:#051C1B;" d="M322.742,298.196v-27.378c0-1.449-0.336-2.901-0.965-4.186l-18.28-37.538
		c-1.588-3.263-4.959-5.372-8.589-5.372h-80.79c-5.267,0-9.553,4.288-9.553,9.558v37.29c0,2.534,1.033,5.011,2.833,6.794
		l27.903,27.632c1.8,1.78,4.185,2.76,6.716,2.76h71.173C318.457,307.754,322.742,303.466,322.742,298.196z M308.168,293.18h-64.084
		l-24.944-24.702v-30.184h72.628l16.4,33.678V293.18z"/>
	<path style="fill:#051C1B;" d="M407.91,333.946c0,28.134,22.839,51.024,50.912,51.024s50.911-22.889,50.911-51.024
		c0-25.655-18.992-46.939-43.624-50.494v-64.016h9.365c5.771,0,10.823-4.103,12.015-9.756l8.314-39.462
		c0.768-3.644-0.138-7.393-2.483-10.285c-2.043-2.518-4.946-4.097-8.12-4.461l-43.207-40.726c-2.928-2.759-7.539-2.624-10.301,0.305
		c-2.76,2.929-2.624,7.54,0.305,10.301l31.868,30.038h-26.061L298.253,42.127c-0.359-0.303-0.694-0.626-1.02-0.955
		c-0.104-0.106-0.21-0.211-0.311-0.319c-0.276-0.294-0.539-0.597-0.79-0.908c-0.146-0.183-0.283-0.373-0.421-0.562
		c-0.108-0.147-0.212-0.297-0.314-0.447c-0.314-0.464-0.606-0.943-0.868-1.438c-0.011-0.021-0.024-0.042-0.035-0.063
		c-0.141-0.27-0.273-0.546-0.398-0.824c-0.039-0.087-0.075-0.175-0.112-0.262c-0.105-0.247-0.209-0.494-0.302-0.746
		c-0.015-0.041-0.037-0.079-0.053-0.12c-0.522-1.464-0.833-3.018-0.903-4.629c-0.193-4.444,1.432-8.619,4.572-11.757
		c6.04-6.032,15.879-6.048,21.934-0.029c0.046,0.045,0.091,0.089,0.138,0.133l91.24,85.996c2.926,2.759,7.539,2.623,10.3-0.306
		c2.76-2.929,2.623-7.54-0.306-10.3l-91.17-85.935C317.695-2.931,298.68-2.881,287.002,8.784c-5.98,5.973-9.2,14.247-8.834,22.699
		c0.056,1.303,0.207,2.592,0.429,3.865L59.168,209.1c-10.92,0.051-19.79,8.96-19.79,19.911v34.488H19.936
		c-9.742,0-17.668,7.938-17.668,17.695v26.225c0,4.025,3.263,7.287,7.287,7.287s7.287-3.262,7.287-7.287v-26.225
		c0-1.721,1.388-3.122,3.094-3.122h26.729h81.209h44.542c9.742,0,17.668-7.938,17.668-17.695v-45.016
		c0-1.721,1.388-3.122,3.094-3.122h113.538c2.753,0,5.314,1.605,6.524,4.092l23.425,48.1c0.484,0.994,0.74,2.104,0.74,3.211v93.233
		c0,4.027-3.258,7.302-7.264,7.302H19.936c-1.706,0-3.094-1.4-3.094-3.122v-28.307c0-4.025-3.263-7.287-7.287-7.287
		s-7.287,3.262-7.287,7.287v28.307c0,9.758,7.926,17.695,17.668,17.695h129.91v18.594H57.532c-30.473,0-55.265,24.792-55.265,55.265
		v0.124C2.268,487.208,27.059,512,57.532,512h347.905c30.473,0,55.265-24.792,55.265-55.265v-0.124
		c0-30.473-24.792-55.265-55.265-55.265h-92.314v-18.594h17.018c12.041,0,21.838-9.814,21.838-21.876v-93.233
		c0-3.304-0.765-6.621-2.211-9.592l-23.425-48.1c-3.633-7.462-11.337-12.285-19.627-12.285H193.178
		c-9.742,0-17.668,7.938-17.668,17.695v45.016c0,1.721-1.388,3.121-3.095,3.121H135.16v-10.425c0-5.184-0.906-10.158-2.557-14.78
		L314.612,74.175l108.316,87.912c-1.274,2.484-1.677,5.336-1.088,8.131l8.314,39.463c1.192,5.652,6.244,9.755,12.015,9.755h9.366
		v64.016C426.903,287.007,407.91,308.291,407.91,333.946z M446.128,456.611v0.124c0,22.437-18.254,40.691-40.691,40.691H57.532
		c-22.437,0-40.691-18.254-40.691-40.691v-0.124c0-22.437,18.254-40.691,40.691-40.691h347.905
		C427.874,415.92,446.128,434.174,446.128,456.611z M298.55,401.346H164.42v-18.594h134.13V401.346z M53.951,263.498V229.01
		c0-2.945,2.382-5.342,5.309-5.342h2.869h29.147c0.617,0,1.229,0.026,1.838,0.064c0.184,0.012,0.367,0.027,0.551,0.042
		c0.442,0.036,0.882,0.083,1.32,0.138c0.188,0.024,0.377,0.045,0.564,0.072c0.559,0.082,1.113,0.178,1.663,0.291
		c0.229,0.047,0.454,0.105,0.681,0.158c0.326,0.075,0.65,0.154,0.972,0.24c0.304,0.082,0.607,0.168,0.908,0.259
		c0.206,0.062,0.41,0.131,0.615,0.198c5.692,1.873,10.62,5.447,14.184,10.124c0.106,0.139,0.212,0.278,0.315,0.419
		c0.199,0.271,0.394,0.546,0.584,0.824c0.243,0.358,0.481,0.722,0.709,1.093c0.116,0.188,0.23,0.378,0.342,0.568
		c0.249,0.424,0.489,0.855,0.718,1.294c2.133,4.075,3.347,8.707,3.347,13.621v10.425L53.951,263.498L53.951,263.498z
		 M303.158,64.879l-177.873,160.39c-5.447-6.716-12.715-11.613-20.89-14.166c-0.046-0.014-0.092-0.03-0.138-0.044
		c-0.582-0.18-1.169-0.346-1.76-0.502c-0.184-0.049-0.368-0.096-0.553-0.142c-0.503-0.125-1.007-0.244-1.515-0.351
		c-0.287-0.061-0.575-0.116-0.864-0.172c-0.438-0.084-0.876-0.166-1.318-0.237c-0.376-0.06-0.756-0.109-1.135-0.16
		c-0.376-0.05-0.751-0.104-1.129-0.144c-0.481-0.052-0.966-0.087-1.451-0.122c-0.293-0.022-0.583-0.051-0.877-0.067
		c-0.787-0.042-1.579-0.067-2.377-0.067H82.65L284.759,49.057c0.186,0.232,0.382,0.456,0.575,0.683
		c0.095,0.112,0.187,0.227,0.284,0.338c0.232,0.265,0.473,0.524,0.715,0.781c0.112,0.12,0.221,0.243,0.335,0.361
		c0.251,0.259,0.51,0.508,0.77,0.758c0.112,0.107,0.219,0.218,0.332,0.324c0.376,0.35,0.76,0.691,1.154,1.022
		c0.03,0.026,0.062,0.051,0.093,0.077L303.158,64.879z M436.681,169.964h44.281l-7.351,34.899h-29.578L436.681,169.964z
		 M495.158,333.946c0,20.099-16.301,36.45-36.337,36.45c-20.037,0-36.338-16.351-36.338-36.45s16.301-36.451,36.338-36.451
		C478.858,297.495,495.158,313.847,495.158,333.946z"/>
	<path style="fill:#051C1B;" d="M226.898,317.519c-4.024,0-7.287,3.262-7.287,7.287s3.263,7.287,7.287,7.287h17.837
		c4.024,0,7.287-3.262,7.287-7.287s-3.263-7.287-7.287-7.287H226.898z"/>
	<path style="fill:#051C1B;" d="M65.592,344.175c2.701,0,5.297-1.509,6.558-4.101l18.096-37.197
		c1.761-3.619,0.254-7.981-3.365-9.741c-3.621-1.763-7.981-0.255-9.741,3.365l-18.096,37.197c-1.761,3.619-0.254,7.981,3.365,9.741
		C63.436,343.939,64.522,344.175,65.592,344.175z"/>
	<path style="fill:#051C1B;" d="M101.842,344.175c2.701,0,5.297-1.509,6.558-4.101l18.096-37.197
		c1.761-3.619,0.254-7.981-3.365-9.741c-3.622-1.763-7.981-0.255-9.741,3.365l-18.096,37.197c-1.761,3.619-0.254,7.981,3.365,9.741
		C99.686,343.939,100.772,344.175,101.842,344.175z"/>
	<path style="fill:#051C1B;" d="M138.092,344.175c2.701,0,5.297-1.509,6.558-4.101l18.096-37.197
		c1.761-3.619,0.254-7.981-3.365-9.741c-3.622-1.763-7.98-0.255-9.741,3.365l-18.096,37.197c-1.761,3.619-0.254,7.981,3.365,9.741
		C135.936,343.939,137.022,344.175,138.092,344.175z"/>
</g>
<g>
</g>
<g>
</g>
<g>
</g>
<g>
</g>
<g>
</g>
<g>
</g>
<g>
</g>
<g>
</g>
<g>
</g>
<g>
</g>
<g>
</g>
<g>
</g>
<g>
</g>
<g>
</g>
<g>
</g>
</svg>
