<?xml version="1.0" encoding="iso-8859-1"?>
<!-- Generator: Adobe Illustrator 19.0.0, SVG Export Plug-In . SVG Version: 6.00 Build 0)  -->
<svg version="1.1" id="Capa_1" xmlns="http://www.w3.org/2000/svg" xmlns:xlink="http://www.w3.org/1999/xlink" x="0px" y="0px"
	 viewBox="0 0 496 496" style="enable-background:new 0 0 496 496;" xml:space="preserve">
<path style="fill:#222222;" d="M251.272,307.232C292.752,278.296,320,230.304,320,176c0-25.656-6.224-49.84-17-71.36l44.968-25.696
	l-7.936-13.888l-44.896,25.656C266.744,45.896,216.856,16,160,16C71.776,16,0,87.776,0,176c0,61.408,34.816,114.768,85.704,141.584
	l-13.296,39.888l15.176,5.064l12.728-38.192C118.784,331.792,138.896,336,160,336c28.2,0,54.68-7.4,77.712-20.256L307.472,432H344
	v-16h-27.472L251.272,307.232z M304,176c0,48.488-24.16,91.352-60.992,117.464L230.128,272H256v-64.104
	c13.312-0.52,24-11.44,24-24.872c0-6.664-2.592-12.936-7.312-17.656l-27.624-27.624l44.024-25.16
	C298.544,131.752,304,153.224,304,176z M176,256h-32v-32h32V256z M128,208v48H80v-53.16c0.896-0.688,1.816-1.344,2.624-2.16
	L152,131.312c4.256-4.248,11.776-4.232,16.008,0l69.368,69.36c0.816,0.816,1.728,1.48,2.632,2.168V256h-48v-48H128z
	 M261.368,176.672c1.672,1.68,2.632,3.992,2.632,6.352c0,4.952-4.024,8.976-8.968,8.976c-2.4,0-4.648-0.936-6.344-2.632L179.32,120
	c-10.312-10.312-28.312-10.328-38.632,0l-69.376,69.368c-1.696,1.696-3.944,2.632-6.344,2.632c-4.944,0-8.968-4.024-8.968-8.976
	c0-2.36,0.96-4.672,2.624-6.344L152,83.312c2.104-2.104,5.016-3.312,8-3.312l0,0c3.024,0,5.864,1.176,8,3.32L261.368,176.672z
	 M16,176C16,96.6,80.6,32,160,32c50.92,0,95.648,26.64,121.256,66.64l-47.92,27.384L179.32,72c-5.16-5.16-12.008-8-19.304-8
	c-0.008,0-0.016,0-0.016,0c-7.192,0-14.24,2.92-19.32,8l-93.368,93.368C42.592,170.088,40,176.36,40,183.024
	c0,13.44,10.688,24.352,24,24.872V272h36.896l-10.08,30.232C46.272,277.72,16,230.344,16,176z M160,320
	c-19.336,0-37.76-3.888-54.624-10.832L117.768,272H128h64h19.472l18.024,30.04C208.872,313.456,185.192,320,160,320z"/>
<path style="fill:#fed136;" d="M496,144H336V0h160V144z"/>
<g>
	<rect x="368" y="32" style="fill:#222222;" width="16" height="16"/>
	<rect x="400" y="32" style="fill:#222222;" width="64" height="16"/>
	<rect x="448" y="96" style="fill:#222222;" width="16" height="16"/>
	<rect x="368" y="96" style="fill:#222222;" width="64" height="16"/>
	<rect x="368" y="64" style="fill:#222222;" width="96" height="16"/>
</g>
<path style="fill:#fed136;" d="M160,496H0V352h160V496z"/>
<g>
	<rect x="32" y="384" style="fill:#222222;" width="16" height="16"/>
	<rect x="64" y="384" style="fill:#222222;" width="64" height="16"/>
	<rect x="112" y="448" style="fill:#222222;" width="16" height="16"/>
	<rect x="32" y="448" style="fill:#222222;" width="64" height="16"/>
	<rect x="32" y="416" style="fill:#222222;" width="96" height="16"/>
</g>
<path style="fill:#fed136;" d="M496,496H336V352h160V496z"/>
<g>
	<rect x="368" y="384" style="fill:#222222;" width="16" height="16"/>
	<rect x="400" y="384" style="fill:#222222;" width="64" height="16"/>
	<rect x="448" y="448" style="fill:#222222;" width="16" height="16"/>
	<rect x="368" y="448" style="fill:#222222;" width="64" height="16"/>
	<rect x="368" y="416" style="fill:#222222;" width="96" height="16"/>
</g>
<g>
</g>
<g>
</g>
<g>
</g>
<g>
</g>
<g>
</g>
<g>
</g>
<g>
</g>
<g>
</g>
<g>
</g>
<g>
</g>
<g>
</g>
<g>
</g>
<g>
</g>
<g>
</g>
<g>
</g>
</svg>
